<svg width="58" height="65" viewBox="0 0 58 65" fill="none" xmlns="http://www.w3.org/2000/svg">
<path d="M57 38.3333C57 50.0653 57 55.9329 53.3538 59.576C49.7107 63.2222 43.8431 63.2222 32.1111 63.2222H25.8889C14.1569 63.2222 8.28933 63.2222 4.64622 59.576C1 55.9329 1 50.0653 1 38.3333V25.8889C1 14.1569 1 8.28933 4.64622 4.64622C8.28933 1 14.1569 1 25.8889 1H32.1111C43.8431 1 49.7107 1 53.3538 4.64622C57 8.28933 57 14.1569 57 25.8889" stroke="#0391C4" stroke-width="1.87017" stroke-linecap="round"/>
<path d="M44.5555 38.3333C44.5555 42.4589 42.9167 46.4155 39.9994 49.3327C37.0822 52.25 33.1256 53.8889 29 53.8889C24.8744 53.8889 20.9178 52.25 18.0005 49.3327C15.0833 46.4155 13.4444 42.4589 13.4444 38.3333C13.4444 34.2077 15.0833 30.2511 18.0005 27.3339C20.9178 24.4166 24.8744 22.7777 29 22.7777C33.1256 22.7777 37.0822 24.4166 39.9994 27.3339C42.9167 30.2511 44.5555 34.2077 44.5555 38.3333Z" stroke="#0391C4" stroke-width="1.87017"/>
<path d="M37.9379 12.0418H25.4934M16.1601 12.0418H13.049M10.6659 38.0569C13.3259 39.3885 16.3685 41.6627 21.5236 42.5898C28.8721 43.9152 28.1379 37.4627 35.4863 38.7849C37.7263 39.1894 39.2383 39.8738 40.3085 40.6049" stroke="#0391C4" stroke-width="1.87017" stroke-linecap="round"/>
</svg>
